<svg width="63" height="51" viewBox="0 0 63 51" fill="none" xmlns="http://www.w3.org/2000/svg">
<path d="M37.0798 0C22.4598 0 7.8999 7.90001 7.8999 18.13C7.8999 23.55 15.1798 26.9901 18.8198 26.9901C19.7798 26.9901 20.26 26.65 20.26 25.69C20.26 24.8 16.8999 23.49 16.8999 19.3C16.8999 10.99 24.25 3.92004 36.95 3.92004C45.26 3.92004 53.22 8.93003 53.22 20.47C53.22 32.28 46.2899 44.4301 36.3999 44.4301C33.0999 44.4301 29.95 43.19 26.72 41.55C27.34 40.5201 27.96 39.49 28.5 38.32C32.69 29.19 36.88 16.14 37.77 14.22C39.42 10.58 41.6799 8.45002 41.6799 7.90002C41.6799 7.35002 41.4698 6.94 40.5798 6.94C38.9998 6.94 35.5 7.56 32.2 9.75C29.38 11.53 24.58 28.77 21.21 36.25C20.94 36.87 20.6598 37.49 20.3198 38.03C16.6098 36.11 12.84 34.46 8.79004 34.46C4.81004 34.46 0 37.4801 0 42.5601C0 47.3701 5.35999 50.39 10.99 50.39C15.8 50.39 20.1198 48.81 23.5498 45.45C28.5598 47.99 34.05 50.39 39.96 50.39C52.8 50.39 62.0698 36.52 62.0698 22.65C62.0698 6.66002 47.5098 0 37.0798 0ZM9.67993 46.21C7.47993 46.21 5.62988 44.9701 5.62988 43.1201C5.62988 41.2701 7.14002 39.69 9.27002 39.69C11.74 39.69 14.4898 40.7901 17.5798 42.3C15.2398 45.0401 12.6999 46.21 9.67993 46.21Z" fill="RebeccaPurple"/>
</svg>
