<svg xmlns="http://www.w3.org/2000/svg" width="2072" height="101" viewBox="0 0 2072 101" fill="none"><path fill-rule="evenodd" clip-rule="evenodd" d="M90.3351 82.9873C90.0011 82.4618 89.9231 38.2649 90.2546 37.4024C90.4441 36.909 91.1218 36.8436 95.1515 36.9289L99.8283 37.0277L99.9241 45.1264L100.02 53.2254L101.64 51.9904C106.199 48.5157 113.803 48.6665 116.569 52.2862C118.616 54.9652 118.671 55.4221 118.688 69.9116L118.703 83.2429H113.896H109.088L108.91 71.4335C108.761 61.5905 108.769 59.2661 107.654 58.4187C107.266 58.1236 106.742 58.0076 106.027 57.8157C104.799 57.4854 104.259 57.5163 103.024 57.987C102.232 58.2891 101.662 58.4704 101.248 58.8309C100.129 59.8064 100.153 62.0939 100.006 71.6368L99.8283 83.2429L95.2263 83.3428C91.7839 83.4174 90.5517 83.3282 90.3351 82.9873ZM162.152 45.8904C162.935 43.5483 163.71 41.4295 163.874 41.1814C164.08 40.8693 164.957 40.7626 166.723 40.8344L169.275 40.9382L169.374 45.4584L169.474 49.979L173.114 50.0799L176.753 50.1813L176.854 54.1807L176.955 58.18H173.204H169.453V65.9332C169.453 72.0105 169.56 73.8331 169.95 74.3656C170.353 74.916 171.046 75.0806 173.601 75.2334L176.753 75.4218V78.9431V82.464L174.795 83.1551C171.9 84.176 167.349 84.1519 164.954 83.1032C162.725 82.1266 161.555 80.9549 160.482 78.6214C159.708 76.9377 159.659 76.3518 159.542 67.5119L159.42 58.18H157.313H155.207V54.9912V51.8023L157.967 50.9755L160.727 50.1486L162.152 45.8904ZM298.365 45.7375C298.997 43.6845 299.668 41.7179 299.855 41.3673C300.143 40.8287 300.592 40.7463 302.757 40.8341L305.318 40.9382L305.418 45.4584L305.517 49.979L309.157 50.0799L312.797 50.1813L312.897 54.1682L312.998 58.1548L309.336 58.2565L305.674 58.3578L305.579 66.0587L305.482 73.7599L306.428 74.5018C307.205 75.1122 307.873 75.2441 310.187 75.2441H313L312.898 78.8652L312.797 82.4864L310.838 83.1863C308.301 84.0925 303.45 84.1423 301.42 83.2827C299.213 82.3481 297.804 81.0932 296.896 79.2531C296.096 77.6302 296.051 77.129 295.881 67.9563L295.703 58.3578L293.566 58.18L291.429 58.0023L291.324 55.2134C291.265 53.6371 291.381 52.2304 291.591 51.978C291.795 51.7323 292.998 51.2513 294.264 50.9093C295.529 50.5673 296.711 50.1038 296.89 49.8791C297.068 49.6541 297.732 47.7905 298.365 45.7375ZM125.64 54.6933C127.582 52.0171 130.954 50.2232 135.086 49.6693C136.57 49.4702 137.306 49.3674 138.044 49.3605C138.832 49.3531 139.622 49.4554 141.327 49.6669C150.13 50.7582 154.128 56.0829 154.128 66.7121C154.128 77.4418 150.149 82.716 141.231 83.8049C133.734 84.7203 127.479 82.3043 124.846 77.477C121.458 71.2618 121.853 59.9113 125.64 54.6933ZM192.914 52.716C194.125 51.4291 196.92 50.0483 199.053 49.6836C203.786 48.8737 208.072 50.5026 209.357 53.6001C209.591 54.1639 209.843 54.625 209.918 54.625C209.993 54.625 210.644 53.9727 211.366 53.1753C213.04 51.3253 215.418 50.1269 218.338 49.6612C223.96 48.7646 227.85 51.0188 229.097 55.8959C229.554 57.6855 229.633 60.2146 229.555 70.6492L229.461 83.2429H224.654H219.846L219.668 71.3336C219.57 64.7835 219.372 59.2437 219.228 59.0233C218.846 58.4364 216.662 57.469 215.72 57.469C214.538 57.469 212.096 58.7417 211.477 59.681C211.04 60.3429 210.91 62.5698 210.764 71.8668L210.586 83.2429L205.867 83.342L201.149 83.4412V72.0371C201.149 62.7489 201.053 60.4474 200.63 59.6323C200.083 58.5757 198.174 57.469 196.899 57.469C195.653 57.469 193.841 58.3837 193.017 59.4293C192.263 60.3863 192.245 60.6657 192.24 71.4705C192.237 77.5541 192.104 82.737 191.945 82.9873C191.728 83.3282 190.496 83.4174 187.054 83.3428L182.452 83.2429V66.7121V50.1813H186.725H190.999L191.56 51.8695L192.122 53.5582L192.914 52.716ZM235.605 51.1297C236.466 50.6868 240.264 50.0202 243.885 49.6765C248.246 49.263 248.375 49.2626 251.898 49.6594C257.321 50.2701 260.195 52.2809 261.294 56.2315C261.548 57.1445 261.688 62.2217 261.69 70.5337L261.692 83.4206H257.232C254.266 83.4206 253.224 83.4694 252.695 82.9727C252.356 82.6549 252.226 82.1139 251.936 81.1941C251.763 80.6445 251.538 80.7202 250.112 81.8063C248.087 83.3492 246.242 83.8764 242.807 83.8938C240.502 83.9052 239.858 83.7612 238.205 82.8639C234.673 80.9474 233.043 77.579 233.254 72.6351C233.416 68.8515 234.46 66.6701 236.892 65.033C239.334 63.3899 240.56 63.1219 246.645 62.9022L252.076 62.7063V61.4112C252.076 58.3944 250.232 57.7723 241.503 57.8423C238.328 57.8679 235.561 57.7847 235.355 57.6578C235.142 57.5263 234.982 56.143 234.982 54.4387C234.982 51.952 235.086 51.3967 235.605 51.1297ZM278.381 53.2411C280.334 51.1888 282.336 50.1084 284.918 49.7124C285.953 49.5538 287.004 49.4934 287.254 49.5776C287.6 49.6946 287.685 50.8919 287.61 54.5781L287.511 59.4243L284.306 59.6241C280.652 59.852 278.772 60.5292 277.835 61.9555C277.254 62.8385 277.164 64.0476 277.005 73.0944L276.827 83.2429H272.02H267.212V66.7121V50.1813L271.401 50.081C274.008 50.0186 275.126 49.9529 275.691 50.4802C276.156 50.9144 276.245 51.7507 276.481 53.3221L276.729 54.9759L278.381 53.2411ZM143.604 66.7138C143.591 61.5342 142.916 59.3667 141.011 58.383C139.851 57.7847 137.344 57.677 136.114 58.1729C134.094 58.9877 133.127 61.8524 133.127 67.0206C133.127 73.0115 134.67 75.6046 138.229 75.5943C140.739 75.5871 141.698 75.0212 142.733 72.9351C143.531 71.3268 143.613 70.7402 143.604 66.7138ZM247.462 76.5843C250.354 76.3067 252.076 74.1531 252.076 70.8117V69.2006L248.604 69.223C246.694 69.2354 244.779 69.3872 244.349 69.5603C243.417 69.935 242.46 71.6432 242.46 72.9333C242.46 75.4489 244.416 76.8765 247.462 76.5843Z" fill="black" fill-opacity="0.5"></path><path fill-rule="evenodd" clip-rule="evenodd" d="M37.8608 0.910588C32.0412 3.62946 27.5083 8.66087 23.995 16.302C23.3386 17.7293 21.9016 21.3668 20.8015 24.3854C18.4072 30.9565 18.0369 31.5999 16.7373 31.4499C15.8538 31.3482 15.7722 31.1996 15.6743 29.5131C15.6062 28.3464 15.8377 26.8871 16.3153 25.4722C17.5372 21.8514 17.1002 22.0647 13.2618 26.9628C9.36712 31.933 5.18075 39.8934 2.94885 46.5726C-1.18801 58.9529 -0.966499 70.614 3.57707 79.6879C8.25811 89.0354 16.8595 96.166 26.5093 98.6993C33.1277 100.437 39.0239 100.433 45.6851 98.689C55.0827 96.2272 63.6097 89.3372 68.0959 80.5798C71.4197 74.0909 72.3987 69.298 72.1259 60.8463C71.9126 54.2372 70.9101 48.8993 68.6575 42.378C66.4712 36.0487 62.4701 27.9624 61.5249 27.9624C61.3465 27.9624 61.2994 28.6763 61.4195 29.553C61.7183 31.7276 60.9344 32.9395 59.2289 32.9395C57.5565 32.9395 57.0899 32.1197 56.1857 27.5909C55.1654 22.4824 53.6646 19.4724 50.7379 16.6671C48.2432 14.2757 47.0569 13.7733 47.6634 15.3653C47.8543 15.8669 48.0106 17.3191 48.0106 18.5921C48.0106 20.6946 47.9116 21.006 46.9333 21.9826C46.07 22.8443 45.6672 23.0107 44.9073 22.8205C43.4172 22.4472 42.1315 21.3647 40.8975 19.4457C37.5595 14.2525 37.1738 8.3235 39.7807 2.27287C40.9502 -0.441027 40.8722 -0.49613 37.8608 0.910588ZM47.6816 52.1138C45.2349 49.6761 43.2252 48.4987 40.0845 47.6643C34.8105 46.2626 29.0831 47.7592 24.89 51.6342C16.2302 59.6376 18.4055 73.6763 29.0906 78.7415C31.507 79.8869 32.1729 80.0402 35.2838 80.1649C38.1514 80.2798 39.1934 80.1678 41.1639 79.5332C47.6157 77.4553 52.1183 71.6621 52.5535 64.8802C52.8786 59.8111 51.3273 55.7466 47.6816 52.1138Z" fill="black"></path><path fill-rule="evenodd" clip-rule="evenodd" d="M591.383 0.011051C580.078 0.489452 570.338 3.73982 563.237 9.40351C561.906 10.4648 559.372 12.9808 558.391 14.2155C555.017 18.461 553.075 23.215 552.369 28.9613C552.226 30.1262 552.229 34.2252 552.373 35.2517C553.343 42.1539 557.038 47.497 564.286 52.4796C566.7 54.1392 568.607 55.2621 574.087 58.2504C576.129 59.3637 578.295 60.5691 578.901 60.9291C583.665 63.7601 585.926 66.0021 586.662 68.6238C586.91 69.5093 586.909 70.8692 586.659 71.8099C585.869 74.7828 583.127 77.2552 579.104 78.6215C576.907 79.3681 574.568 79.7389 571.64 79.805C564.597 79.9639 556.398 78.1799 549.384 74.9625C548.344 74.4858 546.823 73.7062 546.612 73.5421C546.555 73.4977 546.488 73.4819 546.463 73.5071C546.368 73.6013 541.939 94.5894 542.001 94.6465C542.122 94.7575 543.976 95.4567 545.554 95.9865C550.82 97.7547 556.883 99.0484 562.584 99.6198C567.494 100.112 572.651 100.127 577.187 99.6615C591.152 98.2294 602.307 92.3891 608.149 83.4513C611.467 78.3748 613.054 72.5714 612.896 66.0913C612.833 63.5018 612.533 61.6028 611.851 59.4649C609.896 53.3409 605.538 48.4095 597.909 43.689C596.168 42.6117 594.098 41.4479 590.526 39.5389C586.487 37.3803 584.966 36.5105 583.388 35.4564C581.846 34.4267 581.012 33.7602 580.198 32.907C578.777 31.4165 578.161 30.0744 578.162 28.4711C578.165 24.9197 581.639 21.8781 587.059 20.6812C590.008 20.0301 594.015 19.9381 598.072 20.4287C602.721 20.9908 608.064 22.4489 612.109 24.2594C612.662 24.5068 613.124 24.6996 613.136 24.6878C613.148 24.6759 614.133 20.1458 615.326 14.6209C616.518 9.09594 617.513 4.51101 617.538 4.4321C617.591 4.2585 617.349 4.14649 615.653 3.55977C610.746 1.86216 604.677 0.627922 599.174 0.207932C598.546 0.160059 597.811 0.10271 597.542 0.0805713C596.924 0.0297575 592.2 -0.0235874 591.383 0.011051ZM393.505 1.61414C393.449 1.77728 392.977 4.56534 393.001 4.58936C393.013 4.60137 393.571 4.72505 394.242 4.86434C399.468 5.94948 404.866 7.51556 409.605 9.32133C413.771 10.9086 415.275 11.543 416.714 12.3192C419.3 13.7144 421.011 15.3647 421.962 17.3804C422.741 19.0323 422.694 18.8598 427.122 35.987C428.94 43.0188 430.57 49.3235 430.745 49.9975C431.061 51.212 438.229 78.912 438.98 81.8174C439.194 82.6487 440.247 86.72 441.32 90.8648L443.269 98.4008L456.404 98.4011L469.539 98.4013L489.731 50.0283C500.836 23.4232 509.935 1.62312 509.949 1.58366C509.965 1.54274 504.358 1.51202 496.885 1.51202H483.793L483.654 1.85922C483.577 2.05014 477.751 16.8195 470.706 34.6799C463.661 52.5403 457.866 67.2085 457.826 67.2758C457.776 67.362 457.754 67.367 457.753 67.2928C457.748 67.0831 447.141 11.2526 446.941 10.3862C446.186 7.10725 444.162 4.45358 441.266 2.94649C439.836 2.20241 438.365 1.7745 436.632 1.59804C435.31 1.46349 393.551 1.47909 393.505 1.61414ZM520.463 1.73668C520.438 1.8602 515.841 23.5409 510.248 49.9158C504.655 76.2908 500.058 97.9899 500.033 98.1358L499.989 98.4013H512.465H524.942L535.131 50.1813C540.735 23.6603 545.336 1.8602 545.354 1.73668L545.389 1.51202H532.948H520.508L520.463 1.73668ZM658.199 1.6058C654.074 2.03462 651.045 4.43716 648.893 8.98704C648.628 9.54746 612.352 96.7028 611.72 98.2992C611.687 98.3807 614.331 98.4013 624.772 98.4013H637.864L638.859 95.5216C639.406 93.9378 640.539 90.6481 641.378 88.2112L642.902 83.7805L658.872 83.7793C667.655 83.7787 674.843 83.7872 674.844 83.7985C674.846 83.8098 675.535 87.0908 676.375 91.0897L677.903 98.3605L689.472 98.3812C700.466 98.4009 701.039 98.3948 700.998 98.2586C700.952 98.1041 680.879 1.62034 680.879 1.55278C680.879 1.48007 658.914 1.53146 658.199 1.6058ZM667.091 45.8235C669.2 55.7043 670.926 63.8564 670.926 63.9392C670.926 64.0847 670.577 64.0898 660.556 64.0898C652.296 64.0898 650.193 64.069 650.221 63.9877C650.717 62.5149 663.218 27.7403 663.233 27.7886C663.246 27.8269 664.982 35.9427 667.091 45.8235Z" fill="black"></path><path fill-rule="evenodd" clip-rule="evenodd" d="M880.956 47.8777C880.689 48.1887 880.454 48.5353 880.251 48.9175C879.757 49.834 879.509 50.9105 879.509 52.1471C879.509 53.3982 879.757 54.4893 880.251 55.4203C880.369 55.6425 880.498 55.8527 880.638 56.0508C877.651 80.8116 856.566 100 831 100C803.386 100 781 77.6142 781 50C781 22.3858 803.386 0 831 0C857.903 0 879.844 21.2478 880.956 47.8777ZM853.052 54.8748V47.8264H856.173V46.1898H853.052V43.1784H851.066V46.1898H849.517V47.8264H851.066V54.8748C851.066 56.0386 851.343 56.8751 851.896 57.3843C852.448 57.8934 853.278 58.148 854.383 58.148H856.173V56.4678H854.711C854.1 56.4678 853.67 56.3514 853.423 56.1186C853.176 55.8713 853.052 55.4567 853.052 54.8748ZM818.868 46.5607C818.141 46.1679 817.312 45.9715 816.381 45.9715C815.435 45.9715 814.577 46.2043 813.806 46.6698C813.035 47.1354 812.482 47.79 812.147 48.6338C811.769 47.7609 811.194 47.099 810.423 46.648C809.652 46.197 808.765 45.9715 807.761 45.9715C806.961 45.9715 806.226 46.1388 805.557 46.4734C804.902 46.808 804.379 47.2881 803.986 47.9137V46.1898H802V58.148H803.986V51.5579C803.986 50.3068 804.291 49.3539 804.902 48.6992C805.513 48.03 806.335 47.6954 807.368 47.6954C808.372 47.6954 809.165 48.0155 809.747 48.6556C810.343 49.2812 810.641 50.1904 810.641 51.3833V58.148H812.605V51.5579C812.605 50.3068 812.911 49.3539 813.522 48.6992C814.133 48.03 814.955 47.6954 815.988 47.6954C816.992 47.6954 817.784 48.0155 818.366 48.6556C818.963 49.2812 819.261 50.1904 819.261 51.3833V58.148H821.225V51.0996C821.225 49.994 821.014 49.0557 820.592 48.2846C820.17 47.5136 819.596 46.939 818.868 46.5607ZM824.482 48.9175C823.988 49.834 823.74 50.9032 823.74 52.1252C823.74 53.3327 823.988 54.4092 824.482 55.3549C824.977 56.3005 825.653 57.0351 826.512 57.5588C827.37 58.0826 828.33 58.3444 829.392 58.3444C830.425 58.3444 831.327 58.1189 832.098 57.6679C832.884 57.2024 833.473 56.6205 833.866 55.9222V58.148H835.873V46.1898H833.866V48.3719C833.487 47.6882 832.913 47.1208 832.142 46.6698C831.371 46.2188 830.461 45.9934 829.414 45.9934C828.352 45.9934 827.385 46.2479 826.512 46.7571C825.653 47.2663 824.977 47.9864 824.482 48.9175ZM833.32 49.7903C833.684 50.4595 833.866 51.2451 833.866 52.1471C833.866 53.049 833.684 53.8419 833.32 54.5256C832.956 55.1948 832.462 55.7113 831.836 56.075C831.225 56.4241 830.549 56.5987 829.807 56.5987C829.065 56.5987 828.388 56.4241 827.777 56.075C827.166 55.7113 826.679 55.1948 826.315 54.5256C825.952 53.8419 825.77 53.0418 825.77 52.1252C825.77 51.2233 825.952 50.4377 826.315 49.7685C826.679 49.0993 827.166 48.5901 827.777 48.241C828.388 47.8918 829.065 47.7173 829.807 47.7173C830.549 47.7173 831.225 47.8991 831.836 48.2628C832.462 48.612 832.956 49.1211 833.32 49.7903ZM843.462 58.3444C842.546 58.3444 841.724 58.1917 840.997 57.8862C840.269 57.5661 839.695 57.1297 839.273 56.5769C838.851 56.0095 838.618 55.3621 838.574 54.6347H840.626C840.684 55.2312 840.96 55.7185 841.455 56.0968C841.964 56.475 842.626 56.6642 843.441 56.6642C844.197 56.6642 844.794 56.4969 845.23 56.1623C845.666 55.8277 845.885 55.4058 845.885 54.8966C845.885 54.3729 845.652 53.9874 845.186 53.74C844.721 53.4782 844.001 53.2236 843.026 52.9763C842.139 52.7435 841.411 52.5108 840.844 52.278C840.291 52.0307 839.811 51.6743 839.404 51.2087C839.011 50.7287 838.814 50.1031 838.814 49.3321C838.814 48.7211 838.996 48.161 839.36 47.6518C839.724 47.1426 840.24 46.7426 840.909 46.4516C841.578 46.1461 842.342 45.9934 843.201 45.9934C844.524 45.9934 845.594 46.328 846.408 46.9972C847.223 47.6664 847.659 48.5829 847.718 49.7467H845.732C845.688 49.1211 845.434 48.6192 844.968 48.241C844.517 47.8627 843.906 47.6736 843.135 47.6736C842.422 47.6736 841.855 47.8264 841.433 48.1319C841.011 48.4374 840.8 48.8374 840.8 49.3321C840.8 49.7249 840.924 50.0522 841.171 50.314C841.433 50.5614 841.753 50.765 842.131 50.9251C842.524 51.0705 843.062 51.2378 843.746 51.427C844.604 51.6597 845.303 51.8925 845.841 52.1252C846.379 52.3435 846.837 52.6781 847.216 53.129C847.609 53.58 847.812 54.1692 847.827 54.8966C847.827 55.5512 847.645 56.1404 847.281 56.6642C846.917 57.1879 846.401 57.6025 845.732 57.908C845.077 58.1989 844.321 58.3444 843.462 58.3444ZM869.49 51.7106C869.49 52.0889 869.468 52.4889 869.424 52.9108H859.866C859.939 54.0892 860.339 55.013 861.066 55.6822C861.808 56.3368 862.703 56.6642 863.75 56.6642C864.609 56.6642 865.322 56.4678 865.889 56.075C866.471 55.6676 866.878 55.1294 867.111 54.4602H869.249C868.929 55.6094 868.289 56.5478 867.329 57.2752C866.369 57.988 865.176 58.3444 863.75 58.3444C862.616 58.3444 861.597 58.0898 860.695 57.5807C859.808 57.0715 859.11 56.3514 858.6 55.4203C858.091 54.4747 857.837 53.3836 857.837 52.1471C857.837 50.9105 858.084 49.8267 858.579 48.8956C859.073 47.9646 859.764 47.2517 860.652 46.7571C861.554 46.2479 862.587 45.9934 863.75 45.9934C864.885 45.9934 865.889 46.2407 866.762 46.7353C867.635 47.2299 868.304 47.9137 868.769 48.7865C869.249 49.6448 869.49 50.6195 869.49 51.7106ZM867.438 51.296C867.438 50.5395 867.271 49.8922 866.936 49.3539C866.602 48.8011 866.144 48.3865 865.562 48.1101C864.994 47.8191 864.361 47.6736 863.663 47.6736C862.659 47.6736 861.801 47.9937 861.088 48.6338C860.39 49.2739 859.99 50.1613 859.888 51.296H867.438ZM875.58 46.5389C874.94 46.9171 874.446 47.4481 874.096 48.1319V46.1898H872.111V58.148H874.096V51.6452C874.096 49.2302 875.209 48.0228 877.435 48.0228H877.959V45.9715C877.028 45.9715 876.235 46.1607 875.58 46.5389Z" fill="black" fill-opacity="0.7"></path><path fill-rule="evenodd" clip-rule="evenodd" d="M850.05 47.8264C850.019 48.5471 850.003 49.2717 850.003 50C850.003 77.6142 872.389 100 900.003 100C927.618 100 950.003 77.6142 950.003 50C950.003 22.3857 927.618 -1.84821e-05 900.003 -1.6068e-05C873.671 -1.3766e-05 852.093 20.3556 850.146 46.1897H851.066V43.1783H853.052V46.1897H856.173V47.8264H853.052V54.8748C853.052 55.4567 853.176 55.8713 853.423 56.1186C853.67 56.3514 854.1 56.4677 854.711 56.4677H856.173V58.148H854.383C853.278 58.148 852.448 57.8934 851.896 57.3843C851.343 56.8751 851.066 56.0386 851.066 54.8748V47.8264H850.05ZM916.393 48.9174C915.899 49.834 915.651 50.9032 915.651 52.1252C915.651 53.3327 915.899 54.4092 916.393 55.3548C916.888 56.3004 917.564 57.0351 918.423 57.5588C919.296 58.0825 920.263 58.3444 921.325 58.3444C922.358 58.3444 923.26 58.1189 924.031 57.6679C924.802 57.2024 925.384 56.6132 925.777 55.9004V58.148H927.784V42H925.777V48.3283C925.355 47.63 924.744 47.0699 923.944 46.648C923.143 46.2116 922.278 45.9933 921.347 45.9933C920.27 45.9933 919.296 46.2479 918.423 46.7571C917.564 47.2663 916.888 47.9864 916.393 48.9174ZM925.231 49.7903C925.595 50.4595 925.777 51.2451 925.777 52.1471C925.777 53.049 925.595 53.8419 925.231 54.5256C924.867 55.1948 924.373 55.7113 923.747 56.075C923.136 56.4241 922.46 56.5987 921.718 56.5987C920.976 56.5987 920.299 56.4241 919.688 56.075C919.077 55.7113 918.59 55.1948 918.226 54.5256C917.863 53.8419 917.681 53.0417 917.681 52.1252C917.681 51.2233 917.863 50.4377 918.226 49.7685C918.59 49.0993 919.077 48.5901 919.688 48.241C920.299 47.8918 920.976 47.7173 921.718 47.7173C922.46 47.7173 923.136 47.8991 923.747 48.2628C924.373 48.6119 924.867 49.1211 925.231 49.7903ZM869.49 51.7106C869.49 52.0889 869.468 52.4889 869.424 52.9108H859.866C859.939 54.0892 860.339 55.013 861.066 55.6822C861.808 56.3368 862.703 56.6641 863.75 56.6641C864.609 56.6641 865.322 56.4677 865.889 56.075C866.471 55.6676 866.878 55.1293 867.111 54.4602H869.249C868.929 55.6094 868.289 56.5478 867.329 57.2751C866.369 57.988 865.176 58.3444 863.75 58.3444C862.616 58.3444 861.597 58.0898 860.695 57.5806C859.808 57.0715 859.11 56.3514 858.601 55.4203C858.091 54.4747 857.837 53.3836 857.837 52.1471C857.837 50.9105 858.084 49.8267 858.579 48.8956C859.073 47.9646 859.764 47.2517 860.652 46.7571C861.554 46.2479 862.587 45.9933 863.75 45.9933C864.885 45.9933 865.889 46.2407 866.762 46.7353C867.635 47.2299 868.304 47.9137 868.769 48.7865C869.249 49.6448 869.49 50.6195 869.49 51.7106ZM867.438 51.296C867.438 50.5395 867.271 49.8921 866.936 49.3539C866.602 48.8011 866.144 48.3865 865.562 48.11C864.994 47.8191 864.361 47.6736 863.663 47.6736C862.659 47.6736 861.801 47.9937 861.088 48.6338C860.39 49.2739 859.99 50.1613 859.888 51.296H867.438ZM875.58 46.5389C874.94 46.9171 874.446 47.4481 874.096 48.1319V46.1897H872.111V58.148H874.096V51.6452C874.096 49.2302 875.209 48.0228 877.435 48.0228H877.959V45.9715C877.028 45.9715 876.235 46.1606 875.58 46.5389ZM879.509 52.1471C879.509 50.9105 879.757 49.834 880.251 48.9174C880.746 47.9864 881.43 47.2663 882.302 46.7571C883.19 46.2479 884.201 45.9933 885.336 45.9933C886.805 45.9933 888.012 46.3498 888.958 47.0626C889.918 47.7754 890.551 48.7647 890.857 50.0304H888.718C888.514 49.303 888.114 48.7283 887.518 48.3064C886.936 47.8846 886.209 47.6736 885.336 47.6736C884.201 47.6736 883.284 48.0664 882.586 48.852C881.888 49.623 881.539 50.7214 881.539 52.1471C881.539 53.5873 881.888 54.7002 882.586 55.4858C883.284 56.2714 884.201 56.6641 885.336 56.6641C886.209 56.6641 886.936 56.4605 887.518 56.0531C888.1 55.6458 888.5 55.0639 888.718 54.3074H890.857C890.536 55.5294 889.896 56.5114 888.936 57.2533C887.976 57.9807 886.776 58.3444 885.336 58.3444C884.201 58.3444 883.19 58.0898 882.302 57.5806C881.43 57.0715 880.746 56.3514 880.251 55.4203C879.757 54.4892 879.509 53.3982 879.509 52.1471ZM893.506 48.9174C893.012 49.834 892.764 50.9032 892.764 52.1252C892.764 53.3327 893.012 54.4092 893.506 55.3548C894.001 56.3004 894.677 57.0351 895.536 57.5588C896.394 58.0825 897.354 58.3444 898.416 58.3444C899.449 58.3444 900.351 58.1189 901.122 57.6679C901.907 57.2024 902.497 56.6205 902.889 55.9222V58.148H904.897V46.1897H902.889V48.3719C902.511 47.6882 901.937 47.1208 901.166 46.6698C900.395 46.2188 899.485 45.9933 898.438 45.9933C897.376 45.9933 896.408 46.2479 895.536 46.7571C894.677 47.2663 894.001 47.9864 893.506 48.9174ZM902.344 49.7903C902.708 50.4595 902.889 51.2451 902.889 52.1471C902.889 53.049 902.708 53.8419 902.344 54.5256C901.98 55.1948 901.486 55.7113 900.86 56.075C900.249 56.4241 899.573 56.5987 898.831 56.5987C898.089 56.5987 897.412 56.4241 896.801 56.075C896.19 55.7113 895.703 55.1948 895.339 54.5256C894.975 53.8419 894.794 53.0417 894.794 52.1252C894.794 51.2233 894.975 50.4377 895.339 49.7685C895.703 49.0993 896.19 48.5901 896.801 48.241C897.412 47.8918 898.089 47.7173 898.831 47.7173C899.573 47.7173 900.249 47.8991 900.86 48.2628C901.486 48.6119 901.98 49.1211 902.344 49.7903ZM910.239 48.1319C910.588 47.4481 911.082 46.9171 911.722 46.5389C912.377 46.1606 913.17 45.9715 914.101 45.9715V48.0228H913.577C911.352 48.0228 910.239 49.2302 910.239 51.6452V58.148H908.253V46.1897H910.239V48.1319Z" fill="black" fill-opacity="0.5"></path><path fill-rule="evenodd" clip-rule="evenodd" d="M1064.84 22.3201C1064.01 22.7089 1063.15 23.5902 1062.82 24.3946C1062.68 24.7246 1059.97 41.4069 1056.79 61.4665L1051 97.9386L1051.31 98.6296C1051.49 99.0096 1051.87 99.4735 1052.18 99.6605C1052.7 99.9882 1053.05 100.001 1061.61 100L1070.5 99.9995L1072.54 87.099C1073.66 80.0037 1074.65 73.9134 1074.74 73.5648C1074.95 72.7251 1075.96 71.5711 1076.82 71.1787C1077.44 70.8979 1078.02 70.8624 1082.06 70.8576C1091.08 70.8471 1095.28 70.3587 1099.94 68.7759C1109.7 65.4657 1115.64 58.2619 1118.2 46.6309C1119.48 40.7771 1119.23 36.1296 1117.43 32.3848C1116.71 30.8675 1115.14 28.7202 1113.98 27.6436C1110.8 24.699 1106.11 22.9435 1099.55 22.2462C1097.68 22.048 1094.02 21.9985 1081.37 22C1066.3 22.0017 1065.5 22.0174 1064.84 22.3201Z" fill="black" fill-opacity="0.5"></path><path fill-rule="evenodd" clip-rule="evenodd" d="M1045.88 0.369366C1044.92 0.818016 1043.93 1.8348 1043.56 2.76296C1043.4 3.14376 1040.29 22.3926 1036.64 45.5383L1030 87.6214L1030.36 88.4188C1030.56 88.8572 1031 89.3925 1031.35 89.6083C1031.96 89.9863 1032.35 90.0006 1042.17 90L1052.36 89.9994L1054.7 75.1142C1055.99 66.9273 1057.13 59.9 1057.23 59.4979C1057.47 58.529 1058.63 57.1974 1059.62 56.7446C1060.33 56.4206 1060.99 56.3797 1065.62 56.3741C1075.97 56.3621 1080.79 55.7985 1086.14 53.9722C1097.33 50.1528 1104.15 41.8407 1107.08 28.4203C1108.55 21.6658 1108.27 16.3034 1106.2 11.9825C1105.37 10.2318 1103.57 7.7541 1102.24 6.5118C1098.6 3.11428 1093.21 1.08863 1085.69 0.284106C1083.55 0.0554289 1079.34 -0.00174041 1064.84 3.99475e-05C1047.55 0.00201812 1046.63 0.0200195 1045.88 0.369366Z" fill="black" fill-opacity="0.7"></path><path fill-rule="evenodd" clip-rule="evenodd" d="M1157.74 24.2065C1158.03 23.5516 1158.64 22.9375 1159.3 22.6201L1159.84 22.3626L1173.57 22.3999C1185.71 22.4331 1187.41 22.4578 1188.32 22.6148C1191.25 23.1222 1193.17 23.6687 1194.99 24.5213C1199.27 26.5281 1201.8 29.7184 1202.8 34.3702C1203.1 35.7563 1203.21 39.0166 1203.02 40.785C1202.51 45.6808 1201.07 50.3385 1199.04 53.696C1195.69 59.2261 1190.5 62.5681 1183.35 63.8111C1181.08 64.2042 1179.88 64.275 1174.32 64.3428L1168.81 64.41L1168.24 64.7275C1167.62 65.0668 1167.12 65.6101 1166.87 66.2216C1166.78 66.429 1166.13 70.2969 1165.41 74.817L1165.41 74.8416C1164.17 82.6386 1164.02 83.6304 1163.45 84.2362C1163.37 84.3245 1163.27 84.4046 1163.17 84.4964L1163.17 84.4985C1162.95 84.6888 1162.55 84.9465 1162.28 85.0711C1161.8 85.2914 1161.62 85.2989 1155.95 85.3309C1151.98 85.3534 1149.99 85.3267 1149.72 85.2474C1148.87 85.0009 1148.32 84.2861 1148.32 83.4339C1148.32 83.1563 1150.39 69.828 1152.92 53.8156C1156.28 32.559 1157.58 24.5684 1157.74 24.2065ZM1185.89 39.5103C1185.32 37.1013 1183.65 35.7664 1180.53 35.2229C1179.78 35.0922 1178.62 35.0325 1176.16 34.9985C1172.82 34.9526 1172.81 34.9529 1172.38 35.2014L1172.37 35.2042C1172.27 35.2645 1172.18 35.317 1172.1 35.381C1171.55 35.807 1171.4 36.7449 1170.28 43.9265L1170.27 43.9754C1169.62 48.1332 1169.08 51.5665 1169.08 51.6052C1169.08 51.7484 1177.31 51.5659 1178.22 51.4026C1180.68 50.9578 1182.13 50.2873 1183.4 49.0183C1184.34 48.082 1184.88 47.1936 1185.36 45.8072C1185.98 43.9915 1186.24 40.9838 1185.89 39.5103ZM1211.81 45.8725C1214.68 44.099 1218.01 42.8956 1221.23 42.4649C1222.64 42.2758 1225.68 42.2404 1227.24 42.3948C1232.25 42.8917 1235.4 44.3222 1237.24 46.9401C1237.57 47.4051 1237.86 47.768 1237.88 47.7465C1237.9 47.7251 1238.02 47.0565 1238.15 46.2608C1238.43 44.4761 1238.62 44.0117 1239.23 43.6107L1239.69 43.3068L1245.45 43.2763C1249.31 43.2558 1251.36 43.2838 1251.65 43.3614C1251.88 43.425 1252.25 43.6441 1252.45 43.8484C1252.51 43.9029 1252.56 43.9452 1252.61 43.9842C1252.65 44.0194 1252.69 44.052 1252.72 44.0884C1253.17 44.5436 1253 45.6049 1250.74 59.9148C1250.54 61.187 1250.32 62.564 1250.08 64.0545C1247.79 78.5981 1247.03 83.1416 1246.86 83.5127C1246.56 84.1388 1245.92 84.7748 1245.29 85.0665C1244.8 85.2918 1244.64 85.2987 1239.46 85.3295C1235.92 85.3506 1234 85.3226 1233.71 85.2459C1233.14 85.0914 1232.57 84.5423 1232.4 83.9664C1232.28 83.5589 1232.29 83.3112 1232.5 82.0298C1232.63 81.2216 1232.74 80.4894 1232.73 80.4026C1232.73 80.312 1232.49 80.4759 1232.17 80.7873C1229.82 83.0317 1226.5 84.8087 1223.02 85.6877C1219.15 86.6655 1214.5 86.5144 1210.81 85.2915C1205.64 83.5754 1201.85 79.2716 1200.38 73.4542C1198.88 67.4874 1200.08 60.1196 1203.51 54.4243C1205.6 50.9425 1208.59 47.8561 1211.81 45.8725ZM1258.35 45.1683C1258.35 44.4202 1258.98 43.5869 1259.73 43.3572C1259.89 43.3076 1262.67 43.276 1265.91 43.2868L1271.8 43.3068L1272.29 43.5604C1272.9 43.8785 1273.54 44.4839 1273.8 44.9771C1273.9 45.1853 1275.41 50.1031 1277.15 55.9056C1278.89 61.7082 1280.34 66.5174 1280.38 66.5929C1280.43 66.6763 1283.39 62.3997 1287.96 55.6726C1292.09 49.5911 1295.65 44.425 1295.88 44.1924C1296.11 43.9599 1296.52 43.6654 1296.8 43.5381C1297.29 43.3118 1297.43 43.306 1303.19 43.2733C1307.21 43.2503 1309.21 43.2768 1309.48 43.3568C1309.96 43.4974 1310.49 43.9194 1310.71 44.337C1310.9 44.7013 1310.91 45.6493 1310.74 45.9787C1310.51 46.4178 1274.2 98.7547 1273.92 99.0587C1273.76 99.2248 1273.35 99.5045 1272.99 99.6804L1272.34 100L1266.17 99.9704L1260 99.9409L1259.61 99.6392C1258.92 99.1204 1258.65 98.3094 1258.91 97.5688C1259 97.3338 1261.59 93.576 1264.68 89.2181C1267.78 84.8603 1270.34 81.2381 1270.38 81.1687C1270.43 81.0993 1267.74 73.0474 1264.4 63.2754C1261.07 53.5035 1258.35 45.3553 1258.35 45.1683ZM1235.55 59.3214C1234.61 56.5888 1232.37 54.6964 1229.34 54.0774C1228.47 53.8998 1226.45 53.7872 1225.66 53.8724C1222.74 54.1863 1219.85 55.5843 1218 57.5718C1215.7 60.046 1214.4 63.6355 1214.61 66.9292C1214.75 69.1155 1215.49 70.8643 1216.83 72.2106C1218.06 73.4451 1219.41 74.1525 1221.28 74.5394C1222.6 74.8134 1225 74.7969 1226.36 74.5043C1230.85 73.54 1234.07 70.6549 1235.47 66.348C1236.27 63.8945 1236.3 61.4841 1235.55 59.3214Z" fill="black"></path><path d="M1426.64 22.6357C1426.34 22.8119 1426.12 23.062 1425.97 23.3615C1425.81 23.7015 1424.56 31.4149 1421.1 53.4815C1418.54 69.7962 1416.44 83.3035 1416.44 83.4979C1416.45 84.3012 1417.03 85.0253 1417.86 85.2462C1418.14 85.3229 1419.98 85.351 1423.34 85.3297L1428.39 85.2979L1428.96 85.041C1429.7 84.7054 1430.43 83.8987 1430.66 83.1629C1430.84 82.5581 1440 24.7079 1440 24.1429C1440 23.6134 1439.56 22.885 1439.08 22.609L1438.65 22.3686L1432.87 22.3678L1427.09 22.3671L1426.64 22.6357Z" fill="black" fill-opacity="0.5"></path><path fill-rule="evenodd" clip-rule="evenodd" d="M1384.13 42.3521C1383.98 42.3735 1383.43 42.4453 1382.89 42.5117C1382.36 42.5782 1381.36 42.769 1380.68 42.9357C1371.16 45.2581 1363.92 53.179 1362.04 63.3321C1361.07 68.5627 1361.63 73.2688 1363.74 77.4434C1366.79 83.5013 1372.53 86.5547 1380.35 86.2889C1382.24 86.2247 1383.4 86.0587 1385.16 85.6016C1388.18 84.8168 1391.31 83.1635 1393.64 81.1166C1394.15 80.6741 1394.58 80.3246 1394.59 80.3399C1394.61 80.3553 1394.52 80.9684 1394.4 81.7024C1394.28 82.4363 1394.18 83.2201 1394.18 83.444C1394.18 84.2972 1394.75 85.0188 1395.6 85.246C1395.88 85.3226 1397.79 85.3506 1401.29 85.3295L1406.56 85.2979L1407.17 84.9958C1407.95 84.615 1408.61 83.8857 1408.83 83.1575C1409.05 82.4345 1414.82 45.8054 1414.82 45.1475C1414.82 44.2976 1414.28 43.5974 1413.44 43.3653C1412.87 43.2078 1402.16 43.2148 1401.59 43.373C1401.35 43.4384 1400.98 43.6685 1400.76 43.8845C1400.33 44.3184 1400.25 44.5768 1399.93 46.6833L1399.75 47.9063L1399.23 47.1488C1397.33 44.3805 1394.16 42.9048 1389.01 42.3948C1387.97 42.2918 1384.75 42.2637 1384.13 42.3521ZM1397.26 66.4914C1399.23 60.6142 1396.8 55.4178 1391.47 54.1273C1390.58 53.9111 1388.22 53.7641 1387.38 53.8716C1381.33 54.6386 1377.08 59.0418 1376.47 65.1645C1376.15 68.3736 1377.25 71.2961 1379.39 72.9129C1381.58 74.5644 1384.78 75.1583 1388.1 74.5299C1392.43 73.7112 1395.84 70.7219 1397.26 66.4914Z" fill="black" fill-opacity="0.5"></path><path fill-rule="evenodd" clip-rule="evenodd" d="M1321.05 22.6904C1320.34 23.0428 1319.96 23.4193 1319.61 24.1043C1319.45 24.4225 1318.28 31.5939 1314.74 54.0297C1310.54 80.6109 1310.09 83.5787 1310.21 83.9607C1310.37 84.5018 1310.96 85.093 1311.48 85.2378C1312.08 85.4015 1323.58 85.392 1324.23 85.2274C1324.87 85.067 1325.6 84.384 1325.77 83.7905C1325.84 83.5536 1326.47 79.6291 1327.19 75.0693C1327.9 70.5095 1328.56 66.5653 1328.66 66.3045C1328.88 65.7161 1329.44 65.0795 1330.08 64.7054C1330.66 64.3669 1330.46 64.3781 1337.07 64.3133C1342.04 64.2645 1343.39 64.1633 1345.99 63.6456C1349.04 63.037 1351.59 62.0886 1353.88 60.7154C1359.56 57.2929 1363.14 51.3878 1364.51 43.1453C1365.69 36.0504 1364.54 30.9245 1360.96 27.3717C1358.5 24.93 1355.15 23.4533 1350.27 22.659C1348.88 22.4323 1348.57 22.4267 1335.29 22.3924L1321.72 22.3572L1321.05 22.6904ZM1345.57 36.3387C1344.97 35.9274 1343.63 35.4384 1342.5 35.2226C1341.39 35.0118 1334.86 34.8937 1334.42 35.0767C1334.06 35.228 1333.68 35.5914 1333.49 35.9704C1333.4 36.14 1332.78 39.7253 1332.11 43.9379L1330.9 51.5973L1334.2 51.6293C1337.55 51.6617 1339.33 51.5623 1340.79 51.2622C1344.92 50.4127 1347.07 47.9585 1347.76 43.3265C1348.27 39.9563 1347.56 37.7002 1345.57 36.3387Z" fill="black" fill-opacity="0.5"></path><path d="M1649.85 15.7314C1642.4 17.6598 1636.64 23.4527 1634.73 30.9578C1634.18 33.0774 1634.17 33.919 1634.17 63.6008C1634.17 90.3693 1634.22 94.1183 1634.58 94.4822C1635.32 95.2201 1636.11 95.3035 1636.88 94.7256L1637.61 94.1856L1637.74 63.4091L1637.88 32.6329L1638.52 30.8646C1639.39 28.4466 1639.95 27.4028 1641.45 25.4191C1643.82 22.2639 1647.53 19.9986 1651.72 19.1501C1653.63 18.7628 1655.47 18.7141 1664.48 18.8137C1674.14 18.9201 1675.15 18.9762 1676.69 19.4867C1682.62 21.4523 1686.96 26.008 1688.56 31.9453C1688.97 33.4633 1689.04 34.9986 1689.04 42.1222C1689.04 51.5535 1688.92 52.4078 1687.05 56.1447C1685.61 59.0094 1682.61 62.022 1679.83 63.3976C1675.86 65.3573 1676.24 65.3158 1660.92 65.4305L1647.11 65.5342L1646.55 66.2427C1645.85 67.135 1645.86 67.4486 1646.58 68.3661L1647.16 69.1044L1661.5 69.0164C1675.66 68.9292 1675.86 68.9201 1677.76 68.288C1683.56 66.3627 1688 62.5785 1690.53 57.4105C1692.55 53.2946 1692.62 52.8075 1692.62 42.1222C1692.62 33.762 1692.56 32.4219 1692.12 30.861C1689.93 23.14 1684.36 17.6758 1676.69 15.7215C1674.68 15.2086 1673.67 15.1681 1663.21 15.1821C1652.94 15.1959 1651.72 15.2462 1649.85 15.7314Z" fill="black" fill-opacity="0.5"></path><path d="M1694.31 15.6701C1693.64 16.4075 1693.73 17.7949 1694.47 18.3145C1694.96 18.6572 1695.93 18.743 1699.35 18.7444C1701.7 18.7452 1704.1 18.8783 1704.68 19.04C1705.26 19.202 1706.28 19.8358 1706.95 20.4486C1707.28 20.7522 1707.55 20.9847 1707.79 21.2554C1709.04 22.72 1708.98 25.3021 1708.98 46.2981C1708.98 67.8856 1708.99 68.2613 1709.53 68.8024C1710.24 69.5079 1711.31 69.5051 1712.01 68.7963C1712.57 68.2457 1712.57 68.0077 1712.5 45.2105L1712.42 22.1809L1711.65 20.6158C1710.66 18.6011 1708.37 16.4903 1706.36 15.7367C1705.02 15.2366 1704.22 15.167 1699.8 15.167C1695.27 15.167 1694.72 15.2176 1694.31 15.6701Z" fill="black" fill-opacity="0.5"></path><path d="M1707.42 2.32589C1704.38 5.3677 1704.38 5.44169 1707.59 8.65514C1709.92 10.9799 1710.1 11.1061 1710.96 10.9403C1711.61 10.8149 1712.48 10.1446 1714 8.6015C1716.92 5.63671 1716.92 5.34487 1713.86 2.30224C1710.77 -0.771756 1710.52 -0.77093 1707.42 2.32589Z" fill="black" fill-opacity="0.5"></path><path d="M1723.44 15.7785C1722.86 16.6121 1722.9 17.533 1723.56 18.1926C1724.07 18.6995 1724.48 18.7433 1728.86 18.7493C1729.13 18.7497 1729.4 18.7497 1729.66 18.7496C1732.25 18.749 1733.94 18.7487 1735.49 19.2018C1738.37 20.0427 1740.79 22.4453 1747.71 29.3071C1748.08 29.6774 1748.47 30.0606 1748.87 30.4572C1754.87 36.4091 1759.07 40.3528 1759.76 40.701C1761.47 41.5589 1763.35 41.7171 1765.26 41.1628C1766.85 40.7029 1767.1 40.4771 1776.78 30.8607L1777.17 30.4772C1785.03 22.6695 1787.66 20.0562 1790.78 19.1818C1792.35 18.7419 1794.05 18.7422 1796.59 18.7427L1796.84 18.7427C1801.01 18.7427 1801.68 18.5012 1801.68 16.9818C1801.68 15.3277 1801.21 15.167 1796.37 15.167C1791.26 15.167 1789.91 15.4088 1786.82 16.879C1784.54 17.9676 1784.28 18.1998 1774.68 27.7408C1765.59 36.7843 1764.8 37.5011 1763.77 37.6397C1763.15 37.7219 1762.3 37.7029 1761.88 37.5976C1761.36 37.4697 1757.86 34.1809 1751.34 27.7053C1740.99 17.4247 1740.29 16.8514 1736.67 15.7435C1735.02 15.241 1734.08 15.167 1729.32 15.167C1724 15.167 1723.86 15.1816 1723.44 15.7785Z" fill="black" fill-opacity="0.5"></path><path d="M1761.44 42.6872C1760.87 42.8277 1760 43.1432 1759.52 43.3883C1759.03 43.6336 1754.24 48.2009 1748.87 53.538C1742.28 60.0865 1738.7 63.4441 1737.86 63.8635C1735.63 64.9866 1734.14 65.2201 1729.17 65.2234C1724.82 65.2264 1724.4 65.2707 1723.74 65.7969C1722.75 66.5733 1722.76 67.7401 1723.77 68.5361C1724.5 69.1154 1724.7 69.1308 1729.75 69.0032L1730.05 68.9957C1733.18 68.9174 1735.18 68.8674 1737.01 68.287C1740.26 67.2582 1742.98 64.5626 1750.53 57.0878L1750.93 56.6882C1756.22 51.444 1760.86 46.9497 1761.24 46.7008C1762.07 46.1429 1763.77 46.1149 1764.76 46.6424C1765.17 46.8595 1769.53 51.0777 1774.45 56.016C1779.36 60.9546 1784.1 65.4872 1784.97 66.0884C1785.85 66.69 1787.39 67.5088 1788.41 67.9082C1790.13 68.5823 1790.63 68.6426 1795.44 68.7446C1800.07 68.8431 1800.67 68.8046 1801.14 68.3733C1801.83 67.7495 1801.82 66.4751 1801.13 65.7768C1800.63 65.2767 1800.21 65.2264 1796.52 65.2234L1796.16 65.2232C1793.79 65.2223 1792.2 65.2216 1790.73 64.8111C1787.77 63.9863 1785.27 61.5071 1777.75 54.0467L1777.19 53.4924C1766.94 43.3137 1766.41 42.8855 1763.72 42.575C1763.04 42.4963 1762.01 42.5469 1761.44 42.6872Z" fill="black" fill-opacity="0.5"></path><path d="M1528.71 38.8216C1525.28 42.2768 1522.24 45.5917 1521.81 46.3267C1519.49 50.381 1519.4 55.5517 1521.58 59.9646C1522.17 61.1518 1523.79 62.9795 1528.54 67.7915L1534.74 74.0694L1539.41 73.9802C1539.68 73.9751 1539.94 73.9709 1540.19 73.9668C1542.07 73.9359 1543.32 73.9153 1544.48 73.5778C1546.77 72.9094 1548.7 70.9979 1554.45 65.3017C1554.83 64.9243 1555.23 64.5304 1555.64 64.119C1563.59 56.252 1563.95 55.9412 1565.35 55.6094C1566.96 55.2266 1568.91 55.4106 1570.22 56.071C1570.67 56.3007 1574.63 60.0568 1579.02 64.4178C1579.28 64.6732 1579.53 64.9218 1579.77 65.1636L1579.77 65.1643C1585.69 71.0532 1587.6 72.9495 1589.87 73.5987C1590.94 73.9071 1592.1 73.934 1593.8 73.9739L1593.81 73.9741C1593.91 73.9765 1594.02 73.9789 1594.13 73.9815L1594.26 73.9846L1598.22 74.0817L1603.98 68.3477C1610.13 62.2388 1611.58 60.3967 1612.44 57.5849C1613.13 55.3787 1613.17 51.6534 1612.55 49.53C1611.6 46.2755 1610.66 45.0394 1604.42 38.7349L1598.46 32.7201L1594.24 32.818C1590.57 32.9033 1589.85 32.9965 1588.66 33.5395C1587.62 34.0186 1585.42 36.0309 1579.17 42.2168C1574.11 47.2313 1570.63 50.4684 1569.94 50.7952C1568.48 51.4944 1565.63 51.5057 1564.31 50.8175C1563.78 50.5421 1559.75 46.753 1555.37 42.3973C1549.33 36.4022 1547.02 34.2887 1545.88 33.7009C1544.43 32.9602 1544.14 32.9173 1539.61 32.7784L1534.86 32.6329L1528.71 38.8216Z" fill="black"></path><path d="M1564.58 6.91983C1562.85 7.15005 1560.71 7.92377 1559.01 8.93349C1558.37 9.31692 1553.57 13.9087 1548.35 19.1374L1538.87 28.6446L1540.38 28.6468C1542.83 28.6501 1545.34 29.1647 1547.39 30.0892C1549.17 30.8885 1549.95 31.5819 1557.43 38.9973C1561.89 43.4199 1565.87 47.162 1566.27 47.3127C1566.67 47.4638 1567.29 47.5171 1567.65 47.4316C1568 47.3458 1571.82 43.778 1576.13 39.5032C1580.44 35.2283 1584.59 31.3412 1585.35 30.8654C1587.26 29.662 1589.84 28.9197 1592.11 28.9197C1593.46 28.9197 1594.01 28.8187 1594.01 28.5715C1594.01 28.38 1589.77 24.0108 1584.59 18.8624C1576.35 10.6757 1574.93 9.37688 1573.24 8.50909C1570.33 7.0084 1567.64 6.51358 1564.58 6.91983Z" fill="black"></path><path fill-rule="evenodd" clip-rule="evenodd" d="M1694.68 86.8871L1694.68 87.9186L1693.2 87.8261C1691.38 87.7125 1690.22 88.2522 1689.73 89.4413C1689.25 90.5855 1689.64 92.098 1690.59 92.8013C1691.22 93.2692 1691.57 93.3113 1693.41 93.1391L1695.51 92.9424V89.3992C1695.51 86.4327 1695.44 85.8557 1695.09 85.8557C1694.8 85.8557 1694.68 86.1535 1694.68 86.8871ZM1700.73 89.4094V92.9633L1702.5 93.1531C1704.87 93.4064 1706.25 92.7914 1706.62 91.3256C1706.92 90.0791 1706.68 89.065 1705.89 88.3111C1705.34 87.7953 1705.05 87.7434 1703.41 87.8748L1701.56 88.0242V86.9399C1701.56 86.1596 1701.44 85.8557 1701.14 85.8557C1700.8 85.8557 1700.73 86.4338 1700.73 89.4094ZM1761.29 86.1277C1758.59 86.7686 1757.65 90.5065 1759.72 92.4457C1760.5 93.1834 1762.32 93.4378 1764.27 93.0813C1765.34 92.8846 1765.51 92.7633 1765.51 92.1742C1765.51 91.5724 1765.41 91.5096 1764.68 91.6276C1764.23 91.7011 1763.26 91.7619 1762.53 91.7627C1760.91 91.7644 1760.42 91.2404 1760.42 89.532C1760.42 87.9318 1761.07 87.506 1763.51 87.506C1765.28 87.506 1765.37 87.476 1765.37 86.8527C1765.37 86.3411 1765.18 86.1621 1764.51 86.0276C1763.45 85.8158 1762.49 85.8458 1761.29 86.1277ZM1799.2 93.007H1800.03H1800.85V89.4314V85.8557H1800.03H1799.2V89.4314V93.007ZM1717.79 89.5689V93.007H1720.64C1722.99 93.007 1723.61 92.9182 1724.12 92.5092C1724.91 91.865 1724.93 90.5879 1724.15 89.9583C1723.65 89.551 1723.63 89.4454 1723.98 89.1516C1724.41 88.7974 1724.52 87.5824 1724.18 87.0659C1723.72 86.389 1722.65 86.1307 1720.28 86.1307H1717.79V89.5689ZM1782.42 87.0934C1782.42 87.5976 1782.28 87.781 1781.87 87.781C1781.47 87.781 1781.32 87.9645 1781.32 88.4687C1781.32 88.9728 1781.47 89.1563 1781.87 89.1563C1782.36 89.1563 1782.42 89.3398 1782.42 90.6691C1782.42 91.8152 1782.56 92.3153 1782.97 92.732C1783.87 93.6267 1786 93.4125 1786 92.4275C1786 92.0191 1785.8 91.9068 1785.06 91.9068C1784.03 91.9068 1783.8 91.577 1783.8 90.1132C1783.8 89.2443 1783.86 89.1844 1784.83 89.104C1785.65 89.0364 1785.86 88.9057 1785.86 88.4687C1785.86 88.0316 1785.65 87.901 1784.83 87.8333C1783.94 87.7599 1783.8 87.6537 1783.8 87.0769C1783.8 86.5444 1783.66 86.4058 1783.11 86.4058C1782.56 86.4058 1782.42 86.5433 1782.42 87.0934ZM1722.6 88.1936C1722.6 88.6703 1722.39 88.7547 1721.02 88.8262C1719.48 88.9065 1719.44 88.8903 1719.44 88.1936C1719.44 87.4969 1719.48 87.4807 1721.02 87.561C1722.39 87.6325 1722.6 87.7169 1722.6 88.1936ZM1647.21 88.0333C1647.15 88.0962 1647.1 89.6742 1647.1 91.5402C1647.1 94.3721 1647.16 94.9324 1647.51 94.9324C1647.8 94.9324 1647.92 94.6442 1647.92 93.9895V93.0469L1649.37 93.1814C1651.34 93.3654 1652.64 92.6982 1652.98 91.3256C1653.29 90.0774 1653.04 89.0606 1652.25 88.3237C1651.72 87.8264 1651.35 87.7621 1649.48 87.8349C1648.3 87.8809 1647.28 87.9703 1647.21 88.0333ZM1655.05 88.585C1653.45 90.1891 1654.28 92.8338 1656.5 93.1875C1657.93 93.4138 1659.38 93.086 1660.03 92.3923C1660.58 91.8018 1660.78 90.0062 1660.4 89.0312C1660.13 88.316 1658.79 87.781 1657.27 87.781C1656.07 87.781 1655.73 87.9056 1655.05 88.585ZM1661.61 87.9356C1661.34 88.2109 1663.41 93.007 1663.8 93.007C1664.01 93.007 1664.6 92.1098 1665.11 91.0129L1666.04 89.0188L1666.95 91.0173C1667.55 92.3299 1668 92.99 1668.27 92.9405C1668.68 92.8637 1670.42 89.1412 1670.46 88.2624C1670.5 87.2953 1669.97 87.8201 1669.36 89.3626C1669.32 89.483 1669.27 89.5983 1669.23 89.7085C1668.72 90.9805 1668.49 91.5787 1668.25 91.5796C1668.04 91.5804 1667.83 91.1101 1667.42 90.2223L1667.41 90.2057L1667.41 90.1903C1667.37 90.1134 1667.34 90.0334 1667.3 89.9504C1666.79 88.8378 1666.24 87.8834 1666.08 87.8297C1665.92 87.7758 1665.4 88.6095 1664.93 89.6819C1664.46 90.7544 1663.98 91.6318 1663.87 91.6318C1663.76 91.6318 1663.39 90.893 1663.05 89.99C1662.46 88.3966 1661.92 87.6287 1661.61 87.9356ZM1672.73 88.0693C1671.9 88.4049 1671.22 90.0596 1671.45 91.179C1671.69 92.3136 1672.27 92.9341 1673.28 93.1572C1674.43 93.4097 1677.08 93.0455 1677.08 92.6343C1677.08 92.3956 1676.54 92.3318 1675.18 92.4085C1673.54 92.5015 1673.21 92.4391 1672.71 91.9363C1672.39 91.6175 1672.13 91.2329 1672.13 91.0817C1672.13 90.9177 1673.18 90.8066 1674.74 90.8066C1677.15 90.8066 1677.35 90.7645 1677.35 90.2694C1677.35 89.381 1676.78 88.4106 1676.07 88.0863C1675.27 87.7235 1673.62 87.715 1672.73 88.0693ZM1679 90.4628C1679 91.9772 1679.11 93.007 1679.28 93.007C1679.44 93.007 1679.55 92.1458 1679.55 90.9736C1679.55 88.766 1679.67 88.6062 1681.23 88.6062C1681.75 88.6062 1682.03 88.4654 1682.03 88.2013C1682.03 87.8864 1681.69 87.8099 1680.52 87.8575L1679.01 87.9186L1679 90.4628ZM1683.42 88.552C1682.74 89.2314 1682.58 89.6132 1682.59 90.5791C1682.6 91.859 1682.92 92.4564 1683.87 92.9622C1684.91 93.5175 1688.08 93.2601 1688.08 92.6198C1688.08 92.3995 1687.5 92.334 1686.2 92.4074C1684.71 92.4916 1684.23 92.4182 1683.86 92.0532C1682.86 91.0487 1683.25 90.8066 1685.88 90.8066H1688.35V90.012C1688.35 88.664 1687.56 87.9893 1685.8 87.8432C1684.36 87.7241 1684.19 87.7744 1683.42 88.552ZM1707.52 87.9631C1707.42 88.0632 1707.89 89.1912 1708.57 90.4697C1709.25 91.7481 1709.81 92.9465 1709.81 93.133C1709.81 93.6947 1708.85 94.3823 1708.07 94.3823C1707.21 94.3823 1707.09 94.818 1707.88 95.0686C1709.06 95.444 1709.89 94.6323 1711.52 91.4942C1713.1 88.4373 1713.34 87.781 1712.83 87.781C1712.68 87.781 1712.1 88.7093 1711.53 89.8439C1710.97 90.9785 1710.45 91.9057 1710.37 91.9046C1710.29 91.9033 1709.73 90.975 1709.12 89.8417C1708.04 87.8019 1707.87 87.6091 1707.52 87.9631ZM1726.86 88.3311C1726.86 88.7943 1727.05 88.8818 1728.03 88.8851C1729.6 88.89 1730.44 89.1398 1730.44 89.6011C1730.44 89.8849 1729.99 89.9815 1728.69 89.9815C1726.43 89.9815 1725.61 90.7546 1726.21 92.318C1726.5 93.0632 1727.61 93.3013 1729.92 93.1091L1732.09 92.9278L1732.08 90.9733C1732.08 89.8984 1731.99 88.8826 1731.88 88.7162C1731.46 88.085 1730.41 87.781 1728.67 87.781C1727.05 87.781 1726.86 87.8369 1726.86 88.3311ZM1733.86 88.025C1733.79 88.0927 1733.74 89.241 1733.74 90.5775V93.007H1734.56H1735.39V91.2486C1735.39 89.323 1735.53 89.1563 1737.14 89.1563C1738.39 89.1563 1738.69 89.5892 1738.69 91.4117C1738.69 92.93 1738.72 93.007 1739.38 93.007C1740.05 93.007 1740.06 92.9611 1740.06 90.9441C1740.06 88.0231 1739.77 87.7692 1736.48 87.8448C1735.11 87.8765 1733.93 87.9576 1733.86 88.025ZM1742.68 88.1133C1741.75 88.6422 1741.46 89.2366 1741.45 90.5698C1741.44 92.2127 1742.05 92.9941 1743.51 93.1883C1744.93 93.3784 1746.5 92.9655 1746.62 92.3708C1746.69 91.9764 1746.45 91.9068 1745.03 91.9068C1743.49 91.9068 1743.33 91.8488 1743.09 91.2192C1742.52 89.707 1743.71 88.7 1745.63 89.0738C1746.3 89.2036 1746.39 89.1381 1746.39 88.5008C1746.39 87.8069 1746.33 87.7813 1744.81 87.7893C1743.94 87.794 1742.98 87.9397 1742.68 88.1133ZM1748.69 88.039C1747.88 88.3861 1747.22 89.4044 1747.22 90.2997C1747.22 92.441 1748.67 93.4631 1751.34 93.19C1753.27 92.9922 1754.09 92.1681 1754.09 90.4268C1754.09 88.6879 1753.22 87.9672 1750.99 87.8649C1750.05 87.822 1749.01 87.9001 1748.69 88.039ZM1767.27 88.585C1766.63 89.2295 1766.47 89.6288 1766.47 90.5962C1766.47 92.7323 1767.8 93.5008 1770.89 93.1429C1772.23 92.987 1772.52 92.8615 1772.52 92.4415C1772.52 91.9937 1772.25 91.92 1770.39 91.8496C1768.62 91.7828 1768.25 91.6884 1768.17 91.288C1768.09 90.8597 1768.34 90.8066 1770.44 90.8066C1772.79 90.8066 1772.8 90.8044 1772.8 90.0978C1772.8 89.6811 1772.46 89.0576 1771.99 88.585C1771.29 87.8861 1770.98 87.781 1769.63 87.781C1768.28 87.781 1767.97 87.8861 1767.27 88.585ZM1774.17 90.4611V93.007H1774.98C1775.8 93.007 1775.8 93.0051 1775.88 91.1504L1775.96 89.2938H1777.33H1778.71L1778.79 91.1504C1778.87 93.0051 1778.87 93.007 1779.68 93.007H1780.5V91.0693C1780.5 89.386 1780.41 89.0438 1779.83 88.4656C1779.21 87.849 1778.98 87.8044 1776.67 87.8575L1774.17 87.915V90.4611ZM1787.23 88.0203C1787.16 88.0905 1787.1 89.241 1787.1 90.5775V93.007H1787.91C1788.72 93.007 1788.72 93.0051 1788.8 91.1504L1788.89 89.2938L1789.99 89.1563C1790.86 89.0474 1791.09 88.9041 1791.09 88.4687C1791.09 87.9738 1790.9 87.9172 1789.22 87.9059C1788.19 87.8988 1787.3 87.9505 1787.23 88.0203ZM1792.32 88.3311C1792.32 88.7943 1792.51 88.8818 1793.49 88.8851C1795.06 88.89 1795.9 89.1398 1795.9 89.6011C1795.9 89.8849 1795.46 89.9815 1794.15 89.9815C1791.9 89.9815 1791.07 90.7546 1791.67 92.318C1791.96 93.0632 1793.07 93.3013 1795.38 93.1091L1797.55 92.9278L1797.55 90.9733C1797.54 89.8984 1797.45 88.8826 1797.34 88.7162C1796.92 88.085 1795.88 87.781 1794.13 87.781C1792.51 87.781 1792.32 87.8369 1792.32 88.3311ZM1676.3 89.2201C1676.73 89.8973 1676.51 89.9815 1674.29 89.9815H1672.06L1672.47 89.3626C1673.14 88.3468 1675.68 88.2522 1676.3 89.2201ZM1687.19 88.9519C1687.37 89.1013 1687.53 89.3942 1687.53 89.6024C1687.53 89.8907 1687.04 89.9815 1685.47 89.9815C1684.33 89.9815 1683.41 89.8888 1683.41 89.7752C1683.43 88.6367 1686.06 88.0635 1687.19 88.9519ZM1651.82 89.0614C1652.51 89.6833 1652.47 91.2049 1651.76 91.92C1651.3 92.381 1650.91 92.4688 1649.63 92.4014L1648.06 92.3194L1647.98 90.6947C1647.92 89.581 1648 88.9981 1648.25 88.8422C1648.9 88.4288 1651.28 88.5748 1651.82 89.0614ZM1659.11 88.8224C1659.72 89.2064 1660.03 90.4741 1659.72 91.2825C1659.35 92.2743 1659.02 92.4476 1657.54 92.4528C1655.85 92.4583 1655.07 91.8768 1655.07 90.6064C1655.07 89.1464 1655.7 88.6054 1657.38 88.6103C1658.16 88.6128 1658.93 88.708 1659.11 88.8224ZM1694.68 90.3619C1694.68 92.3351 1694.55 92.4459 1692.29 92.4531C1690.97 92.4575 1690.28 91.7721 1690.28 90.4702C1690.28 89.1852 1691.13 88.6062 1693.03 88.6062H1694.68V90.3619ZM1705.45 89.0614C1706.14 89.6833 1706.11 91.2049 1705.39 91.92C1704.93 92.381 1704.55 92.4688 1703.26 92.4014L1701.69 92.3194L1701.61 90.6947C1701.55 89.581 1701.64 88.9981 1701.89 88.8422C1702.54 88.4288 1704.92 88.5748 1705.45 89.0614ZM1751.83 89.3095C1752.5 89.7812 1752.66 91.0297 1752.11 91.5768C1751.93 91.7583 1751.27 91.9068 1750.65 91.9068C1749.34 91.9068 1748.87 91.5355 1748.87 90.4922C1748.87 89.6583 1749.73 88.8812 1750.65 88.8812C1750.96 88.8812 1751.49 89.0741 1751.83 89.3095ZM1770.71 89.0482C1771.61 89.3926 1771.09 89.7064 1769.63 89.7064C1768.23 89.7064 1767.65 89.3898 1768.46 89.0633C1768.96 88.8625 1770.2 88.8543 1770.71 89.0482ZM1722.97 90.9111C1723.1 91.6356 1722.55 91.8977 1720.88 91.9027C1719.45 91.9068 1719.44 91.8969 1719.44 91.0685V90.2304L1721.15 90.3121C1722.58 90.38 1722.88 90.4821 1722.97 90.9111ZM1730.1 90.9829C1730.93 91.2038 1730.75 91.6813 1729.73 91.9643C1728.72 92.2468 1727.69 92.0174 1727.69 91.5091C1727.69 90.9403 1728.93 90.6691 1730.1 90.9829ZM1795.57 90.9829C1796.39 91.2038 1796.21 91.6813 1795.19 91.9643C1794.18 92.2462 1793.15 92.0177 1793.15 91.5119C1793.15 90.8847 1794.28 90.6377 1795.57 90.9829Z" fill="black" fill-opacity="0.5"></path><path d="M1566.23 59.3691C1566 59.4517 1562.17 63.1283 1557.7 67.5391C1552.11 73.0668 1549.16 75.7882 1548.19 76.2973C1546.2 77.354 1543.9 77.8791 1541.28 77.8791C1540.03 77.8791 1539 77.9759 1539 78.0942C1539 78.2125 1543.36 82.6505 1548.7 87.9565C1556.65 95.8714 1558.67 97.7374 1559.94 98.3475C1564.44 100.506 1569.53 100.41 1573.58 98.0928C1574.81 97.3886 1594.01 78.5896 1594.01 78.0906C1594.01 77.9743 1593.29 77.8791 1592.42 77.8791C1591.54 77.8791 1590.12 77.6946 1589.25 77.4687C1585.94 76.6053 1585.23 76.053 1576.82 67.6898C1572.43 63.3291 1568.5 59.6294 1568.07 59.4684C1567.24 59.1532 1566.88 59.134 1566.23 59.3691Z" fill="black"></path><path d="M1881.68 0H1891.96V60.7545H1881.68V0Z" fill="black"></path><path d="M1898.5 0H1903.17V60.7545H1898.5V0Z" fill="black"></path><path d="M1911.59 0H1920V60.7545H1911.59V0Z" fill="black"></path><path d="M1927.48 0H1933.08V60.7545H1927.48V0Z" fill="black"></path><path d="M1940.56 0H1953.65V60.7545H1940.56V0Z" fill="black"></path><path d="M2013.47 0H2024.68V60.7545H2013.47V0Z" fill="black"></path><path d="M1962.99 0H1971.41V60.7545H1962.99V0Z" fill="black"></path><path d="M2032.16 0H2039.64V60.7545H2032.16V0Z" fill="black"></path><path d="M1979.82 0H1986.36V60.7545H1979.82V0Z" fill="black"></path><path d="M2047.12 0H2052.72V60.7545H2047.12V0Z" fill="black"></path><path d="M1996.64 0H2003.19V60.7545H1996.64V0Z" fill="black"></path><path d="M2061.14 0H2071.42V60.7545H2061.14V0Z" fill="black"></path><path d="M1901.84 84.9602C1903.41 85.47 1904.66 86.3285 1905.58 87.5358C1906.5 88.7163 1906.96 90.1918 1906.96 91.9626C1906.96 94.404 1906.02 96.2954 1904.12 97.6369C1902.22 98.9515 1899.46 99.6088 1895.82 99.6088H1881.68V71.4384H1895.01C1898.37 71.4384 1900.96 72.0958 1902.78 73.4104C1904.59 74.6982 1905.5 76.4823 1905.5 78.7627C1905.5 80.1578 1905.18 81.392 1904.53 82.4651C1903.87 83.5383 1902.98 84.37 1901.84 84.9602ZM1886.96 75.5433V83.3102H1894.44C1896.29 83.3102 1897.7 82.9883 1898.67 82.3444C1899.67 81.6737 1900.18 80.7078 1900.18 79.4469C1900.18 78.1591 1899.67 77.1932 1898.67 76.5494C1897.7 75.8786 1896.29 75.5433 1894.44 75.5433H1886.96ZM1895.5 95.504C1899.59 95.504 1901.64 94.1491 1901.64 91.4394C1901.64 88.7297 1899.59 87.3748 1895.5 87.3748H1886.96V95.504H1895.5Z" fill="black"></path><path d="M1929.97 100.011C1927.07 100.011 1924.45 99.3942 1922.12 98.16C1919.79 96.8991 1917.96 95.1686 1916.63 92.9686C1915.3 90.7418 1914.64 88.2602 1914.64 85.5236C1914.64 82.7871 1915.3 80.3188 1916.63 78.1188C1917.96 75.892 1919.79 74.1616 1922.12 72.9274C1924.45 71.6665 1927.07 71.036 1929.97 71.036C1932.87 71.036 1935.48 71.6665 1937.81 72.9274C1940.14 74.1616 1941.97 75.8786 1943.3 78.0786C1944.63 80.2786 1945.29 82.7602 1945.29 85.5236C1945.29 88.287 1944.63 90.7687 1943.3 92.9686C1941.97 95.1686 1940.14 96.8991 1937.81 98.16C1935.48 99.3942 1932.87 100.011 1929.97 100.011ZM1929.97 95.4235C1931.86 95.4235 1933.57 95.0076 1935.09 94.1759C1936.61 93.3174 1937.8 92.1369 1938.67 90.6345C1939.53 89.1053 1939.97 87.4016 1939.97 85.5236C1939.97 83.6456 1939.53 81.9554 1938.67 80.453C1937.8 78.9237 1936.61 77.7432 1935.09 76.9115C1933.57 76.053 1931.86 75.6238 1929.97 75.6238C1928.07 75.6238 1926.36 76.053 1924.84 76.9115C1923.33 77.7432 1922.13 78.9237 1921.27 80.453C1920.4 81.9554 1919.96 83.6456 1919.96 85.5236C1919.96 87.4016 1920.4 89.1053 1921.27 90.6345C1922.13 92.1369 1923.33 93.3174 1924.84 94.1759C1926.36 95.0076 1928.07 95.4235 1929.97 95.4235Z" fill="black"></path><path d="M1954.96 71.4384H1960.25V95.182H1975.13V99.6088H1954.96V71.4384Z" fill="black"></path><path d="M2004.71 95.2223V99.6088H1983.37V71.4384H2004.14V75.825H1988.65V83.1493H2002.39V87.4553H1988.65V95.2223H2004.71Z" fill="black"></path><path d="M2020.44 75.8652H2011.01V71.4384H2035.16V75.8652H2025.73V99.6088H2020.44V75.8652Z" fill="black"></path><path d="M2056.09 100.011C2053.19 100.011 2050.57 99.3942 2048.24 98.16C2045.91 96.8991 2044.08 95.1686 2042.75 92.9686C2041.43 90.7418 2040.76 88.2602 2040.76 85.5236C2040.76 82.7871 2041.43 80.3188 2042.75 78.1188C2044.08 75.892 2045.91 74.1616 2048.24 72.9274C2050.57 71.6665 2053.19 71.036 2056.09 71.036C2058.99 71.036 2061.61 71.6665 2063.94 72.9274C2066.27 74.1616 2068.1 75.8786 2069.43 78.0786C2070.75 80.2786 2071.42 82.7602 2071.42 85.5236C2071.42 88.287 2070.75 90.7687 2069.43 92.9686C2068.1 95.1686 2066.27 96.8991 2063.94 98.16C2061.61 99.3942 2058.99 100.011 2056.09 100.011ZM2056.09 95.4235C2057.99 95.4235 2059.69 95.0076 2061.21 94.1759C2062.73 93.3174 2063.92 92.1369 2064.79 90.6345C2065.66 89.1053 2066.09 87.4016 2066.09 85.5236C2066.09 83.6456 2065.66 81.9554 2064.79 80.453C2063.92 78.9237 2062.73 77.7432 2061.21 76.9115C2059.69 76.053 2057.99 75.6238 2056.09 75.6238C2054.19 75.6238 2052.48 76.053 2050.97 76.9115C2049.45 77.7432 2048.26 78.9237 2047.39 80.453C2046.52 81.9554 2046.09 83.6456 2046.09 85.5236C2046.09 87.4016 2046.52 89.1053 2047.39 90.6345C2048.26 92.1369 2049.45 93.3174 2050.97 94.1759C2052.48 95.0076 2054.19 95.4235 2056.09 95.4235Z" fill="black"></path></svg>